<svg width="200" height="200" viewBox="0 0 200 200" fill="none" xmlns="http://www.w3.org/2000/svg">
    <mask id="mask0_209_54" style="mask-type:alpha" maskUnits="userSpaceOnUse" x="0" y="0" width="200" height="200">
        <path opacity="0.7" d="M100 200C155.228 200 200 155.228 200 100C200 44.7715 155.228 0 100 0C44.7715 0 0 44.7715 0 100C0 155.228 44.7715 200 100 200Z" fill="#1D4ED8"/>
    </mask>
    <g mask="url(#mask0_209_54)">
        <path d="M166.176 -24.9999H33.8235C1.33619 -24.9999 -25 1.33631 -25 33.8237V166.177C-25 198.664 1.33619 225 33.8235 225H166.176C198.664 225 225 198.664 225 166.177V33.8237C225 1.33631 198.664 -24.9999 166.176 -24.9999Z" fill="url(#paint0_linear_209_54)"/>
    </g>
    <path d="M80.4844 47.9006C83.1306 48.4672 85.7769 49.0056 88.4232 49.5156C93.7924 50.5503 99.1616 51.4685 104.531 52.27C106.466 52.5588 108.4 52.8325 110.335 53.091C115.747 53.8778 119.077 55.3536 123.745 58.3949C127.646 60.9276 130.249 64.1398 132.002 68.1617C133.598 71.7637 134.598 75.3495 134.907 78.8993C134.971 79.6222 135.006 80.3448 135.014 81.0681C135.065 85.3374 134.103 89.6867 132.245 94.0958C130.556 98.2049 127.95 101.572 123.992 104.236C119.841 106.972 115.334 109.008 110.335 109.864L110.486 109.867C105.087 110.483 99.6849 111.216 94.2784 112.066C91.6162 112.484 88.9529 112.931 86.2887 113.406C88.9139 114.064 91.54 114.693 94.1671 115.294C99.5022 116.514 104.841 117.618 110.184 118.604L110.335 118.607C116.861 119.493 123.736 118.365 129.846 115.943C136.622 113.351 142.901 107.833 146.469 101.208C149.769 95.3556 151.97 88.3229 151.991 81.0681C151.999 79.8473 151.949 78.6258 151.842 77.4123C151.326 71.4296 149.394 65.7411 146.711 60.8069C143.208 54.0942 136.927 48.4218 130.093 45.6981C124.652 43.1671 116.474 41.7121 110.335 42.7102C108.4 42.9687 106.466 43.2424 104.531 43.5312C99.1616 44.3327 93.7924 45.2508 88.4232 46.2856C85.7769 46.7956 83.1306 47.3339 80.4844 47.9006Z" fill="white"/>
    <path d="M120.37 147.403C117.723 146.84 115.076 146.305 112.429 145.798C107.058 144.77 101.688 143.859 96.3179 143.064C94.3827 142.778 92.4476 142.507 90.5125 142.251C85.0994 141.471 81.7679 139.999 77.0962 136.964C73.192 134.436 70.5845 131.227 68.8265 127.208C67.2257 123.608 66.221 120.023 65.9074 116.474C65.843 115.751 65.8065 115.028 65.7979 114.305C65.7414 110.036 66.6978 105.685 68.5507 101.274C70.234 97.1627 72.8358 93.792 76.7904 91.1233C80.9382 88.3815 85.4425 86.3407 90.4401 85.4778L90.2894 85.4754C95.6871 84.8521 101.089 84.1122 106.494 83.2554C109.156 82.8335 111.818 82.3833 114.482 81.9047C111.856 81.2506 109.229 80.6247 106.601 80.0272C101.264 78.8137 95.924 77.717 90.5796 76.7371L90.4289 76.7347C83.9023 75.8568 77.0287 76.9934 70.9217 79.4234C64.1484 82.0247 57.8769 87.55 54.3176 94.1801C51.0249 100.036 48.8329 107.072 48.8208 114.327C48.8147 115.548 48.8663 116.769 48.9745 117.982C49.4984 123.965 51.4373 129.651 54.1264 134.581C57.6385 141.29 63.9269 146.954 70.764 149.669C76.2085 152.193 84.3882 153.637 90.5258 152.632C92.4602 152.371 94.3946 152.094 96.329 151.803C101.697 150.995 107.065 150.07 112.433 149.028C115.079 148.515 117.724 147.973 120.37 147.403Z" fill="white"/>
    <path d="M62.9005 67.8011C73.8912 67.8011 82.801 58.8913 82.801 47.9006C82.801 36.9098 73.8912 28.0001 62.9005 28.0001C51.9098 28.0001 43 36.9098 43 47.9006C43 58.8913 51.9098 67.8011 62.9005 67.8011Z" fill="white"/>
    <path d="M62.9006 57.8508C68.3959 57.8508 72.8508 53.3959 72.8508 47.9006C72.8508 42.4052 68.3959 37.9503 62.9006 37.9503C57.4052 37.9503 52.9503 42.4052 52.9503 47.9006C52.9503 53.3959 57.4052 57.8508 62.9006 57.8508Z" fill="#0FD317" fill-opacity="0.3"/>
    <path d="M62.9005 52.8757C65.6482 52.8757 67.8757 50.6482 67.8757 47.9005C67.8757 45.1529 65.6482 42.9254 62.9005 42.9254C60.1529 42.9254 57.9254 45.1529 57.9254 47.9005C57.9254 50.6482 60.1529 52.8757 62.9005 52.8757Z" fill="#0FD317" fill-opacity="0.85"/>
    <path d="M138.109 167.955C149.1 167.955 158.01 159.046 158.01 148.055C158.01 137.064 149.1 128.154 138.109 128.154C127.119 128.154 118.209 137.064 118.209 148.055C118.209 159.046 127.119 167.955 138.109 167.955Z" fill="white"/>
    <path d="M138.11 158.005C143.605 158.005 148.06 153.55 148.06 148.055C148.06 142.559 143.605 138.104 138.11 138.104C132.614 138.104 128.159 142.559 128.159 148.055C128.159 153.55 132.614 158.005 138.11 158.005Z" fill="#0FD317" fill-opacity="0.3"/>
    <path d="M138.11 153.03C140.857 153.03 143.085 150.802 143.085 148.055C143.085 145.307 140.857 143.08 138.11 143.08C135.362 143.08 133.134 145.307 133.134 148.055C133.134 150.802 135.362 153.03 138.11 153.03Z" fill="#0FD317" fill-opacity="0.85"/>
    <defs>
        <linearGradient id="paint0_linear_209_54" x1="-25" y1="-24.9999" x2="24975" y2="24975" gradientUnits="userSpaceOnUse">
            <stop stop-color="#1AB921"/>
        </linearGradient>
    </defs>
</svg>